<?xml version="1.0" encoding="UTF-8"?>
<svg id="_Слой_1" data-name="Слой 1" xmlns="http://www.w3.org/2000/svg" xmlns:xlink="http://www.w3.org/1999/xlink" viewBox="0 0 7850.36 8867">
  <defs>
    <style>
      .cls-1 {
        fill: url(#_Безымянный_градиент_104-2);
      }

      .cls-2 {
        fill: url(#_Безымянный_градиент_86);
      }

      .cls-3 {
        fill: url(#_Безымянный_градиент_104);
      }
    </style>
    <linearGradient id="_Безымянный_градиент_86" data-name="Безымянный градиент 86" x1="4130.84" y1="695.52" x2="3699.56" y2="8534.02" gradientUnits="userSpaceOnUse">
      <stop offset="0" stop-color="#a800fe"/>
      <stop offset=".29" stop-color="#9510de"/>
      <stop offset=".93" stop-color="#65398e"/>
      <stop offset="1" stop-color="#603e85"/>
    </linearGradient>
    <linearGradient id="_Безымянный_градиент_104" data-name="Безымянный градиент 104" x1="2746.75" y1="4378.4" x2="4466.18" y2="-516.27" gradientUnits="userSpaceOnUse">
      <stop offset="0" stop-color="#fff" stop-opacity=".3"/>
      <stop offset=".45" stop-color="#959595" stop-opacity=".38"/>
      <stop offset="1" stop-color="#000" stop-opacity=".5"/>
    </linearGradient>
    <linearGradient id="_Безымянный_градиент_104-2" data-name="Безымянный градиент 104" x1="6027.47" y1="6176.81" x2="6753.11" y2="-349.25" xlink:href="#_Безымянный_градиент_104"/>
  </defs>
  <path class="cls-2" d="M7850.36,3622.58v4968.89c0,152.17-123.36,275.53-275.53,275.53H275.53C123.36,8867,0,8743.64,0,8591.47V275.53C0,123.36,123.36,0,275.53,0H7528.29c152.17,0,275.53,123.36,275.53,275.53V1904.52c0,152.18-123.36,275.53-275.53,275.53h-3239.88c-152.17,0-275.53,123.36-275.53,275.53v3955.82c0,152.18,123.36,275.53,275.53,275.53h1106.35c152.17,0,275.53-123.36,275.53-275.53v-615.93c0-152.17-123.36-275.53-275.53-275.53h-454.84c-152.17,0-275.53-123.36-275.53-275.53v-1625.41c0-152.17,123.36-275.53,275.53-275.53h1943.9v3.58h691c152.17,0,275.53,123.36,275.53,275.53Z"/>
  <path class="cls-3" d="M7528.29,2180.06h-3239.88c-152.17,0-275.53,123.36-275.53,275.53v1784.75C2268.37,3697,848.29,2733.81,0,1632.47V275.53C0,123.36,123.36,0,275.53,0H7528.29c152.17,0,275.53,123.36,275.53,275.53V1904.52c0,152.18-123.36,275.53-275.53,275.53Z"/>
  <path class="cls-1" d="M7850.36,3622.58v992.2c-972.61,128.83-2065.58,72.92-3185.96-195.17v-800.61c0-152.17,123.36-275.53,275.53-275.53h1943.9v3.58h691c152.17,0,275.53,123.36,275.53,275.53Z"/>
</svg>