<?xml version="1.0" encoding="UTF-8"?>
<!DOCTYPE svg PUBLIC "-//W3C//DTD SVG 1.1//EN" "http://www.w3.org/Graphics/SVG/1.1/DTD/svg11.dtd">
<svg xmlns="http://www.w3.org/2000/svg" version="1.1" width="86px" height="98px" style="shape-rendering:geometricPrecision; text-rendering:geometricPrecision; image-rendering:optimizeQuality; fill-rule:evenodd; clip-rule:evenodd" xmlns:xlink="http://www.w3.org/1999/xlink">
<g><path style="opacity:0.12" fill="#000000" d="M 85.5,7.5 C 85.5,15.5 85.5,23.5 85.5,31.5C 82.8333,33.5 82.8333,35.5 85.5,37.5C 85.5,55.5 85.5,73.5 85.5,91.5C 83.8333,93.8333 81.8333,95.8333 79.5,97.5C 58.1667,97.5 36.8333,97.5 15.5,97.5C 7.5852,94.0756 2.75186,88.0756 1,79.5C 0.333333,59.5 0.333333,39.5 1,19.5C 3.15773,9.34227 9.3244,3.1756 19.5,1C 38.1667,0.333333 56.8333,0.333333 75.5,1C 79.7117,1.93166 83.045,4.09833 85.5,7.5 Z"/></g>
<g><path style="opacity:1" fill="#8500ee" d="M 77.5,44.5 C 76.1667,44.5 74.8333,44.5 73.5,44.5C 73.829,58.3435 73.4957,72.0102 72.5,85.5C 72.5,71.1667 72.5,56.8333 72.5,42.5C 62.5,42.5 52.5,42.5 42.5,42.5C 42.1832,46.7016 42.5166,50.7016 43.5,54.5C 43.5,54.8333 43.5,55.1667 43.5,55.5C 41.5864,52.3157 40.9197,48.649 41.5,44.5C 40.1667,44.5 38.8333,44.5 37.5,44.5C 37.5,52.5 37.5,60.5 37.5,68.5C 36.8333,68.5 36.5,68.1667 36.5,67.5C 36.5,61.1667 36.5,54.8333 36.5,48.5C 36.176,41.6457 36.5093,34.979 37.5,28.5C 38.8333,27.8333 39.8333,26.8333 40.5,25.5C 51.1667,25.5 61.8333,25.5 72.5,25.5C 72.5,21.5 72.5,17.5 72.5,13.5C 72.5,12.8333 72.1667,12.5 71.5,12.5C 54.3382,11.3382 37.0049,11.1715 19.5,12C 16.1434,13.5125 14.1434,16.0125 13.5,19.5C 12.962,21.1172 12.6287,22.7839 12.5,24.5C 12.5,33.8333 12.5,43.1667 12.5,52.5C 12.5,54.5 12.5,56.5 12.5,58.5C 12.5,62.5 12.5,66.5 12.5,70.5C 11.5104,64.69 11.1771,58.69 11.5,52.5C 10.1667,52.5 8.83333,52.5 7.5,52.5C 7.33347,40.8286 7.50014,29.1619 8,17.5C 9.83333,13 13,9.83333 17.5,8C 36.5,7.33333 55.5,7.33333 74.5,8C 75.3081,8.30762 75.9747,8.80762 76.5,9.5C 77.6209,15.1138 77.7876,20.7805 77,26.5C 76.6924,27.3081 76.1924,27.9747 75.5,28.5C 64.5463,29.3115 53.5463,29.8115 42.5,30C 41.565,32.3806 41.2317,34.8806 41.5,37.5C 52.505,37.3335 63.505,37.5002 74.5,38C 76.915,39.4653 77.915,41.632 77.5,44.5 Z"/></g>
<g><path style="opacity:1" fill="#a79963" d="M 72.5,13.5 C 72.5,17.5 72.5,21.5 72.5,25.5C 61.8333,25.5 51.1667,25.5 40.5,25.5C 38.5,25.5 37.5,26.5 37.5,28.5C 36.5093,34.979 36.176,41.6457 36.5,48.5C 35.3454,41.6791 35.1787,34.6791 36,27.5C 36.5133,26.4734 37.0133,25.4734 37.5,24.5C 48.7825,23.5433 60.1159,23.21 71.5,23.5C 71.5,21.8333 71.5,20.1667 71.5,18.5C 71.2155,16.5853 71.5489,14.9187 72.5,13.5 Z"/></g>
<g><path style="opacity:1" fill="#f0c4fe" d="M 14.5,18.5 C 33.5,18.5 52.5,18.5 71.5,18.5C 71.5,20.1667 71.5,21.8333 71.5,23.5C 60.1159,23.21 48.7825,23.5433 37.5,24.5C 29.1667,24.5 20.8333,24.5 12.5,24.5C 12.6287,22.7839 12.962,21.1172 13.5,19.5C 14.1667,19.5 14.5,19.1667 14.5,18.5 Z"/></g>
<g><path style="opacity:1" fill="#ecb0ff" d="M 71.5,12.5 C 72.1667,12.5 72.5,12.8333 72.5,13.5C 71.5489,14.9187 71.2155,16.5853 71.5,18.5C 52.5,18.5 33.5,18.5 14.5,18.5C 16.0714,15.7687 18.4048,13.9354 21.5,13C 38.1633,12.5001 54.83,12.3334 71.5,12.5 Z"/></g>
<g><path style="opacity:1" fill="#e010ff" d="M 71.5,12.5 C 54.83,12.3334 38.1633,12.5001 21.5,13C 18.4048,13.9354 16.0714,15.7687 14.5,18.5C 14.5,19.1667 14.1667,19.5 13.5,19.5C 14.1434,16.0125 16.1434,13.5125 19.5,12C 37.0049,11.1715 54.3382,11.3382 71.5,12.5 Z"/></g>
<g><path style="opacity:1" fill="#2f0f41" d="M 40.5,25.5 C 39.8333,26.8333 38.8333,27.8333 37.5,28.5C 37.5,26.5 38.5,25.5 40.5,25.5 Z"/></g>
<g><path style="opacity:1" fill="#f4dff8" d="M 12.5,24.5 C 20.8333,24.5 29.1667,24.5 37.5,24.5C 37.0133,25.4734 36.5133,26.4734 36,27.5C 35.1787,34.6791 35.3454,41.6791 36.5,48.5C 36.5,54.8333 36.5,61.1667 36.5,67.5C 35.5233,64.7131 35.19,61.7131 35.5,58.5C 35.5,55.8333 35.5,53.1667 35.5,50.5C 27.5585,49.9194 19.8919,50.5861 12.5,52.5C 12.5,43.1667 12.5,33.8333 12.5,24.5 Z"/></g>
<g><path style="opacity:1" fill="#cbb3bc" d="M 72.5,85.5 C 54.992,85.83 37.6586,85.4967 20.5,84.5C 37.423,83.5149 54.423,83.1816 71.5,83.5C 71.5,82.1667 71.5,80.8333 71.5,79.5C 71.5,72.5 71.5,65.5 71.5,58.5C 71.5,55.8333 71.5,53.1667 71.5,50.5C 62.1429,50.1684 52.8096,50.5017 43.5,51.5C 44.714,53.0691 46.3807,53.9024 48.5,54C 46.8659,54.4935 45.1992,54.6602 43.5,54.5C 42.5166,50.7016 42.1832,46.7016 42.5,42.5C 52.5,42.5 62.5,42.5 72.5,42.5C 72.5,56.8333 72.5,71.1667 72.5,85.5 Z"/></g>
<g><path style="opacity:1" fill="#e0c0f1" d="M 71.5,58.5 C 63.8333,58.5 56.1667,58.5 48.5,58.5C 48.5,57.5 48.5,56.5 48.5,55.5C 46.8333,55.5 45.1667,55.5 43.5,55.5C 43.5,55.1667 43.5,54.8333 43.5,54.5C 45.1992,54.6602 46.8659,54.4935 48.5,54C 46.3807,53.9024 44.714,53.0691 43.5,51.5C 52.8096,50.5017 62.1429,50.1684 71.5,50.5C 71.5,53.1667 71.5,55.8333 71.5,58.5 Z"/></g>
<g><path style="opacity:1" fill="#e3bef6" d="M 35.5,58.5 C 27.8333,58.5 20.1667,58.5 12.5,58.5C 12.5,56.5 12.5,54.5 12.5,52.5C 19.8919,50.5861 27.5585,49.9194 35.5,50.5C 35.5,53.1667 35.5,55.8333 35.5,58.5 Z"/></g>
<g><path style="opacity:1" fill="#5d01fd" d="M 43.5,55.5 C 45.1667,55.5 46.8333,55.5 48.5,55.5C 48.5,56.5 48.5,57.5 48.5,58.5C 48.5,63.1667 48.5,67.8333 48.5,72.5C 45.4816,72.6646 42.4816,72.498 39.5,72C 38.1772,71.1841 37.5106,70.0174 37.5,68.5C 37.5,60.5 37.5,52.5 37.5,44.5C 38.8333,44.5 40.1667,44.5 41.5,44.5C 40.9197,48.649 41.5864,52.3157 43.5,55.5 Z"/></g>
<g><path style="opacity:1" fill="#4400fb" d="M 77.5,44.5 C 77.6666,58.504 77.4999,72.504 77,86.5C 76.5,87.6667 75.6667,88.5 74.5,89C 55.5,89.6667 36.5,89.6667 17.5,89C 12.5995,87.0982 9.43286,83.5982 8,78.5C 7.50025,69.8397 7.33358,61.1731 7.5,52.5C 8.83333,52.5 10.1667,52.5 11.5,52.5C 11.1771,58.69 11.5104,64.69 12.5,70.5C 12.2938,73.4951 12.9605,76.1617 14.5,78.5C 15.5964,81.3856 17.5964,83.3856 20.5,84.5C 37.6586,85.4967 54.992,85.83 72.5,85.5C 73.4957,72.0102 73.829,58.3435 73.5,44.5C 74.8333,44.5 76.1667,44.5 77.5,44.5 Z"/></g>
<g><path style="opacity:1" fill="#dbb7fa" d="M 71.5,79.5 C 71.5,80.8333 71.5,82.1667 71.5,83.5C 54.423,83.1816 37.423,83.5149 20.5,84.5C 17.5964,83.3856 15.5964,81.3856 14.5,78.5C 15.0778,77.453 15.7445,77.6197 16.5,79C 34.8303,79.4999 53.1636,79.6666 71.5,79.5 Z"/></g>
<g><path style="opacity:1" fill="#d1a5fc" d="M 12.5,58.5 C 20.1667,58.5 27.8333,58.5 35.5,58.5C 35.19,61.7131 35.5233,64.7131 36.5,67.5C 36.5,68.1667 36.8333,68.5 37.5,68.5C 37.5106,70.0174 38.1772,71.1841 39.5,72C 42.4816,72.498 45.4816,72.6646 48.5,72.5C 48.5,67.8333 48.5,63.1667 48.5,58.5C 56.1667,58.5 63.8333,58.5 71.5,58.5C 71.5,65.5 71.5,72.5 71.5,79.5C 53.1636,79.6666 34.8303,79.4999 16.5,79C 15.7445,77.6197 15.0778,77.453 14.5,78.5C 12.9605,76.1617 12.2938,73.4951 12.5,70.5C 12.5,66.5 12.5,62.5 12.5,58.5 Z"/></g>
<g><path style="opacity:0.628" fill="#07000e" d="M 41.5,59.5 C 42.7479,60.3339 43.4146,61.6672 43.5,63.5C 43.3333,64.8333 43.1667,66.1667 43,67.5C 41.6253,65.0632 41.1253,62.3965 41.5,59.5 Z"/></g>
</svg>
